<?xml version="1.0" encoding="utf-8"?>
<!-- Generator: Adobe Illustrator 26.0.2, SVG Export Plug-In . SVG Version: 6.00 Build 0)  -->
<svg version="1.1" id="Capa_1" xmlns="http://www.w3.org/2000/svg" xmlns:xlink="http://www.w3.org/1999/xlink" x="0px" y="0px"
	 viewBox="0 0 89 89" xml:space="preserve">
	<g id="WBENC-Logo">
		<path fill="var(--paragraph)" stroke="transparent" d="M77.2,23.3H12.6c-2.8,0-5.2,2.3-5.2,5.2v31.4c0,2.8,2.3,5.2,5.2,5.2h64.6c2.8,0,5.2-2.3,5.2-5.2V28.5
			C82.4,25.6,80,23.3,77.2,23.3 M77.2,23.8c2.6,0,4.7,2.1,4.7,4.7v31.4c0,2.6-2.1,4.7-4.7,4.7H12.6c-2.6,0-4.7-2.1-4.7-4.7V28.5
			c0-2.6,2.1-4.7,4.7-4.7L77.2,23.8"/>
		<path fill="var(--paragraph)" stroke="transparent"  d="M10.9,38.8c-0.1-0.3,0.1-0.5,0.3-0.5h1.3c0.1,0,0.3,0.1,0.3,0.3l2.4,8.9h0.1l3.2-9.2c0-0.1,0.2-0.2,0.3-0.2h0.3
			c0.1,0,0.3,0.1,0.3,0.2l3.2,9.2h0.1l2.3-8.9c0-0.1,0.2-0.3,0.3-0.3h1.3c0.3,0,0.4,0.2,0.3,0.5l-3.7,13.1c0,0.2-0.2,0.3-0.3,0.3
			h-0.3c-0.1,0-0.3-0.1-0.3-0.2L19,42.3h-0.1L15.6,52c0,0.1-0.2,0.2-0.3,0.2h-0.3c-0.1,0-0.3-0.1-0.3-0.3L10.9,38.8z"/>
		<path fill="var(--paragraph)" stroke="transparent" d="M34.2,44.3c1.2,0,2-0.9,2-2.1c0-1.2-0.8-2-2-2h-2.6v4.1L34.2,44.3L34.2,44.3z M34.5,50.2c1.2,0,2.1-0.9,2.1-2.1
			c0-1.2-1.1-2-2.4-2h-2.7v4.2H34.5z M29.5,38.7c0-0.2,0.1-0.4,0.4-0.4h4.4c2.4,0,4,1.6,4,3.6c0,1.5-1.1,2.6-2,3.1
			c1,0.4,2.4,1.4,2.4,3.2c0,2.2-1.8,3.8-4.2,3.8h-4.6c-0.2,0-0.4-0.2-0.4-0.4L29.5,38.7L29.5,38.7z"/>
		<path fill="var(--paragraph)" stroke="transparent" d="M41.6,38.7c0-0.2,0.1-0.4,0.4-0.4h7.8c0.2,0,0.4,0.2,0.4,0.4v1.1c0,0.2-0.2,0.4-0.4,0.4h-6.2v4h5.2c0.2,0,0.4,0.2,0.4,0.4
			v1.1c0,0.2-0.2,0.4-0.4,0.4h-5.2v4.2h6.2c0.2,0,0.4,0.2,0.4,0.4v1.1c0,0.2-0.2,0.4-0.4,0.4H42c-0.2,0-0.4-0.2-0.4-0.4L41.6,38.7
			L41.6,38.7z"/>
		<path fill="var(--paragraph)" stroke="transparent" d="M53,38.5c0-0.2,0.2-0.3,0.4-0.3h0.5l8.4,9.8h0v-9.2c0-0.2,0.2-0.4,0.4-0.4H64c0.2,0,0.4,0.2,0.4,0.4v13.1
			c0,0.2-0.2,0.3-0.4,0.3h-0.5L55,42.1h0v9.5c0,0.2-0.1,0.4-0.4,0.4h-1.2c-0.2,0-0.4-0.2-0.4-0.4L53,38.5L53,38.5z"/>
		<path fill="var(--paragraph)" stroke="transparent" d="M74.1,38.1c2,0,3.4,0.7,4.7,1.8c0.2,0.2,0.2,0.4,0,0.5L78,41.4c-0.1,0.2-0.3,0.2-0.5,0c-0.9-0.8-2.2-1.3-3.4-1.3
			c-2.8,0-4.9,2.3-4.9,5.1c0,2.7,2.1,5,4.9,5c1.4,0,2.4-0.6,3.3-1.3c0.2-0.1,0.3-0.1,0.5,0l0.9,0.9c0.1,0.1,0.1,0.4,0,0.5
			c-1.3,1.3-3,1.9-4.7,1.9c-3.9,0-7-3.1-7-7C67.1,41.3,70.2,38.1,74.1,38.1"/>
		<path fill="var(--paragraph)" stroke="transparent" d="M31.3,34.7c-0.2,0.3-0.5,0.5-0.8,0.6s-0.6,0.2-0.9,0.2c-0.3,0-0.7-0.1-1-0.2c-0.3-0.1-0.5-0.3-0.8-0.5
			c-0.2-0.2-0.4-0.5-0.5-0.8c-0.1-0.3-0.2-0.6-0.2-1s0.1-0.7,0.2-1c0.1-0.3,0.3-0.5,0.5-0.8c0.2-0.2,0.5-0.4,0.8-0.5
			c0.3-0.1,0.6-0.2,1-0.2c0.3,0,0.6,0.1,0.9,0.2c0.3,0.1,0.5,0.3,0.8,0.6l-0.5,0.4c-0.2-0.2-0.4-0.3-0.6-0.4
			c-0.2-0.1-0.4-0.2-0.7-0.2c-0.3,0-0.5,0-0.8,0.1c-0.2,0.1-0.4,0.2-0.6,0.4c-0.2,0.2-0.3,0.4-0.4,0.6c-0.1,0.2-0.1,0.5-0.1,0.7
			c0,0.3,0,0.5,0.1,0.7c0.1,0.2,0.2,0.4,0.4,0.6c0.2,0.2,0.3,0.3,0.6,0.4c0.2,0.1,0.5,0.1,0.8,0.1c0.2,0,0.5-0.1,0.7-0.2
			c0.2-0.1,0.4-0.3,0.5-0.5L31.3,34.7z"/>
		<path fill="var(--paragraph)" stroke="transparent" d="M35.9,32.7c0-0.2,0-0.4-0.1-0.6c-0.1-0.2-0.2-0.3-0.3-0.5c-0.1-0.1-0.3-0.2-0.5-0.3c-0.2-0.1-0.4-0.1-0.6-0.1
			c-0.3,0-0.6,0.1-0.8,0.2c-0.2,0.1-0.4,0.3-0.5,0.5s-0.2,0.3-0.3,0.5c0,0.2-0.1,0.3-0.1,0.3H35.9L35.9,32.7z M36.3,34.5
			c-0.2,0.3-0.5,0.6-0.9,0.8c-0.3,0.1-0.7,0.2-1.1,0.2c-0.3,0-0.7-0.1-1-0.2c-0.3-0.1-0.5-0.3-0.7-0.5c-0.2-0.2-0.4-0.5-0.5-0.8
			c-0.1-0.3-0.2-0.6-0.2-1c0-0.3,0.1-0.7,0.2-1s0.3-0.5,0.5-0.8c0.2-0.2,0.4-0.4,0.7-0.5c0.3-0.1,0.6-0.2,0.9-0.2
			c0.3,0,0.7,0.1,0.9,0.2c0.3,0.1,0.5,0.3,0.7,0.5c0.2,0.2,0.3,0.4,0.4,0.7c0.1,0.3,0.1,0.5,0.1,0.8v0.4h-3.9c0,0.1,0,0.3,0.1,0.5
			c0,0.2,0.1,0.4,0.3,0.6c0.1,0.2,0.3,0.3,0.5,0.5c0.2,0.1,0.5,0.2,0.9,0.2c0.3,0,0.6-0.1,0.9-0.2c0.3-0.1,0.5-0.3,0.7-0.6
			L36.3,34.5z"/>
		<path fill="var(--paragraph)" stroke="transparent" d="M37.8,32.1c0-0.1,0-0.2,0-0.3s0-0.2,0-0.4c0-0.1,0-0.2,0-0.3c0-0.1,0-0.2,0-0.2h0.6c0,0.2,0,0.3,0,0.5s0,0.3,0,0.3
			c0.1-0.3,0.3-0.5,0.6-0.7c0.2-0.2,0.5-0.3,0.9-0.3c0.1,0,0.1,0,0.2,0c0,0,0.1,0,0.2,0l-0.1,0.6c-0.1,0-0.2,0-0.2,0
			c-0.3,0-0.5,0-0.7,0.1c-0.2,0.1-0.3,0.2-0.5,0.3c-0.1,0.1-0.2,0.3-0.3,0.5c-0.1,0.2-0.1,0.4-0.1,0.6v2.5h-0.6L37.8,32.1L37.8,32.1
			z"/>
		<path fill="var(--paragraph)" stroke="transparent" d="M43.4,31.3h-1.3v3c0,0.2,0.1,0.4,0.2,0.5c0.1,0.1,0.3,0.2,0.5,0.2c0.1,0,0.2,0,0.3,0c0.1,0,0.2-0.1,0.3-0.1l0,0.5
			c-0.1,0-0.2,0.1-0.4,0.1c-0.1,0-0.3,0-0.4,0c-0.2,0-0.4,0-0.5-0.1c-0.1-0.1-0.3-0.1-0.4-0.2c-0.1-0.1-0.2-0.2-0.2-0.4
			c0-0.1-0.1-0.3-0.1-0.5v-3h-1v-0.5h1v-1.3h0.6v1.3h1.3L43.4,31.3L43.4,31.3z"/>
		<path fill="var(--paragraph)" stroke="transparent" d="M44.6,30.8h0.6v4.6h-0.6V30.8z M44.5,28.9c0-0.1,0-0.2,0.1-0.3c0.1-0.1,0.2-0.1,0.3-0.1c0.1,0,0.2,0,0.3,0.1
			s0.1,0.2,0.1,0.3s0,0.2-0.1,0.3s-0.2,0.1-0.3,0.1c-0.1,0-0.2,0-0.3-0.1C44.5,29.2,44.5,29.1,44.5,28.9"/>
		<path fill="var(--paragraph)" stroke="transparent" d="M47.3,31.3h-1v-0.5h1v-1.5c0-0.3,0-0.5,0.1-0.7c0.1-0.2,0.2-0.3,0.3-0.5s0.3-0.2,0.4-0.2c0.2,0,0.3-0.1,0.5-0.1
			c0.3,0,0.5,0,0.7,0.1l-0.1,0.5c-0.1-0.1-0.3-0.1-0.5-0.1c-0.5,0-0.8,0.4-0.8,1.2v1.3h1.1v0.5h-1.1v4.1h-0.6V31.3z"/>
		<path fill="var(--paragraph)" stroke="transparent" d="M50,30.8h0.6v4.6H50V30.8z M49.8,28.9c0-0.1,0-0.2,0.1-0.3c0.1-0.1,0.2-0.1,0.3-0.1c0.1,0,0.2,0,0.3,0.1
			c0.1,0.1,0.1,0.2,0.1,0.3s0,0.2-0.1,0.3c-0.1,0.1-0.2,0.1-0.3,0.1s-0.2,0-0.3-0.1C49.9,29.2,49.8,29.1,49.8,28.9"/>
		<path fill="var(--paragraph)" stroke="transparent" d="M55.9,32.7c0-0.2,0-0.4-0.1-0.6c-0.1-0.2-0.2-0.3-0.3-0.5c-0.1-0.1-0.3-0.2-0.5-0.3c-0.2-0.1-0.4-0.1-0.6-0.1
			c-0.3,0-0.6,0.1-0.8,0.2c-0.2,0.1-0.4,0.3-0.5,0.5s-0.2,0.3-0.3,0.5c0,0.2-0.1,0.3-0.1,0.3H55.9L55.9,32.7z M56.4,34.5
			c-0.2,0.3-0.5,0.6-0.9,0.8c-0.3,0.1-0.7,0.2-1.1,0.2c-0.3,0-0.7-0.1-1-0.2c-0.3-0.1-0.5-0.3-0.7-0.5c-0.2-0.2-0.4-0.5-0.5-0.8
			c-0.1-0.3-0.2-0.6-0.2-1c0-0.3,0.1-0.7,0.2-1c0.1-0.3,0.3-0.5,0.5-0.8c0.2-0.2,0.4-0.4,0.7-0.5c0.3-0.1,0.6-0.2,0.9-0.2
			c0.3,0,0.7,0.1,0.9,0.2c0.3,0.1,0.5,0.3,0.7,0.5c0.2,0.2,0.3,0.4,0.4,0.7c0.1,0.3,0.1,0.5,0.1,0.8v0.4h-3.9c0,0.1,0,0.3,0.1,0.5
			c0,0.2,0.1,0.4,0.3,0.6c0.1,0.2,0.3,0.3,0.5,0.5c0.2,0.1,0.5,0.2,0.9,0.2c0.3,0,0.6-0.1,0.9-0.2c0.3-0.1,0.5-0.3,0.7-0.6
			L56.4,34.5z"/>
		<path fill="var(--paragraph)" stroke="transparent" d="M61.9,33.1c0-0.3,0-0.5-0.1-0.7c-0.1-0.2-0.2-0.4-0.4-0.6c-0.2-0.2-0.4-0.3-0.6-0.4s-0.5-0.1-0.8-0.1
			c-0.3,0-0.5,0-0.8,0.1c-0.2,0.1-0.4,0.2-0.6,0.4c-0.2,0.2-0.3,0.4-0.4,0.6c-0.1,0.2-0.1,0.5-0.1,0.7s0,0.5,0.1,0.7
			c0.1,0.2,0.2,0.4,0.4,0.6c0.2,0.2,0.3,0.3,0.6,0.4s0.5,0.1,0.8,0.1c0.3,0,0.5,0,0.8-0.1s0.4-0.2,0.6-0.4c0.2-0.2,0.3-0.4,0.4-0.6
			C61.9,33.6,61.9,33.3,61.9,33.1 M61.9,34.6L61.9,34.6c-0.1,0.2-0.2,0.3-0.4,0.4c-0.1,0.1-0.3,0.2-0.4,0.3
			c-0.2,0.1-0.3,0.1-0.5,0.2s-0.4,0-0.5,0c-0.3,0-0.7-0.1-1-0.2c-0.3-0.1-0.5-0.3-0.8-0.5c-0.2-0.2-0.4-0.5-0.5-0.8s-0.2-0.6-0.2-1
			c0-0.3,0.1-0.7,0.2-1c0.1-0.3,0.3-0.5,0.5-0.8c0.2-0.2,0.5-0.4,0.8-0.5c0.3-0.1,0.6-0.2,1-0.2c0.2,0,0.3,0,0.5,0
			c0.2,0,0.3,0.1,0.5,0.2c0.2,0.1,0.3,0.2,0.4,0.3c0.1,0.1,0.3,0.2,0.3,0.4h0v-3.7h0.6v7.6h-0.6V34.6z"/>
		<path fill="var(--paragraph)" stroke="transparent" d="M12.5,55.5C12.5,55.4,12.5,55.4,12.5,55.5l0.2-0.1c0,0,0.1,0,0.1,0.1l0.6,2.2h0l0.7-2.2c0,0,0,0,0.1,0h0.1
			c0,0,0.1,0,0.1,0l0.7,2.2h0l0.6-2.2c0,0,0-0.1,0.1-0.1h0.2c0.1,0,0.1,0,0.1,0.1l-0.8,2.8c0,0,0,0.1-0.1,0.1H15c0,0-0.1,0-0.1,0
			l-0.7-2.3h0l-0.7,2.3c0,0,0,0-0.1,0h-0.1c0,0-0.1,0-0.1-0.1L12.5,55.5z"/>
		<path fill="var(--paragraph)" stroke="transparent" d="M17.9,58.1c0.7,0,1.2-0.5,1.2-1.2c0-0.7-0.5-1.2-1.2-1.2s-1.2,0.5-1.2,1.2C16.7,57.5,17.2,58.1,17.9,58.1 M17.9,55.4
			c0.8,0,1.5,0.7,1.5,1.5c0,0.8-0.7,1.5-1.5,1.5s-1.5-0.7-1.5-1.5C16.4,56,17,55.4,17.9,55.4"/>
		<path fill="var(--paragraph)" stroke="transparent" d="M20.4,55.4C20.4,55.4,20.5,55.4,20.4,55.4l0.1-0.1c0,0,0.1,0,0.1,0l0.8,2.3h0l0.8-2.3c0,0,0,0,0.1,0h0.1
			c0,0,0.1,0,0.1,0.1l0.5,2.8c0,0.1,0,0.1-0.1,0.1h-0.2c0,0-0.1,0-0.1-0.1l-0.4-2.1h0l-0.8,2.2c0,0,0,0-0.1,0h-0.1c0,0-0.1,0-0.1,0
			l-0.8-2.2h0l-0.4,2.1c0,0,0,0.1-0.1,0.1H20c-0.1,0-0.1,0-0.1-0.1L20.4,55.4z"/>
		<path fill="var(--paragraph)" stroke="transparent" d="M23.8,55.5C23.8,55.4,23.8,55.4,23.8,55.5l1.7-0.1c0,0,0.1,0,0.1,0.1v0.1c0,0,0,0.1-0.1,0.1h-1.4v1h1.2c0,0,0.1,0,0.1,0.1
			v0.1c0,0,0,0.1-0.1,0.1h-1.2V58h1.4c0,0,0.1,0,0.1,0.1v0.1c0,0,0,0.1-0.1,0.1h-1.6c0,0-0.1,0-0.1-0.1V55.5z"/>
		<path fill="var(--paragraph)" stroke="transparent" d="M26.3,55.4C26.3,55.4,26.4,55.4,26.3,55.4l0.2-0.1l1.9,2.3h0v-2.2c0,0,0-0.1,0.1-0.1h0.1c0,0,0.1,0,0.1,0.1v2.8
			c0,0,0,0.1-0.1,0.1h-0.1L26.6,56l0,0v2.3c0,0,0,0.1-0.1,0.1h-0.1c0,0-0.1,0-0.1-0.1L26.3,55.4L26.3,55.4z"/>
		<path fill="var(--paragraph)" stroke="transparent" d="M29.4,56.5C29.3,56.4,29.4,56.4,29.4,56.5c0.1-0.1,0.3-0.3,0.3-0.6c0,0,0,0,0,0c-0.1,0-0.2-0.1-0.2-0.2
			c0-0.1,0.1-0.2,0.2-0.2c0.1,0,0.3,0.1,0.3,0.4c0,0.3-0.2,0.6-0.3,0.8C29.5,56.5,29.5,56.5,29.4,56.5L29.4,56.5z"/>
		<path fill="var(--paragraph)" stroke="transparent" d="M30.3,57.9C30.4,57.9,30.4,57.8,30.3,57.9c0.1-0.1,0.1-0.2,0.2-0.1c0,0,0.3,0.3,0.7,0.3c0.3,0,0.6-0.2,0.6-0.5
			c0-0.3-0.2-0.5-0.7-0.7c-0.5-0.2-0.7-0.4-0.7-0.9c0-0.3,0.2-0.7,0.9-0.7c0.4,0,0.7,0.2,0.7,0.2c0,0,0.1,0.1,0,0.1c0,0,0,0,0,0.1
			c0,0.1-0.1,0.1-0.1,0c0,0-0.3-0.2-0.5-0.2c-0.4,0-0.6,0.3-0.6,0.5c0,0.3,0.2,0.4,0.6,0.6c0.6,0.2,0.9,0.4,0.9,0.9
			c0,0.4-0.4,0.7-0.9,0.7c-0.5,0-0.8-0.3-0.9-0.3C30.3,58,30.3,58,30.3,57.9"/>
		<path fill="var(--paragraph)" stroke="transparent" d="M34.8,56.7c0.3,0,0.5-0.2,0.5-0.5c0-0.3-0.2-0.5-0.5-0.5h-0.7v1H34.8z M34.9,58c0.3,0,0.5-0.2,0.5-0.5
			c0-0.3-0.3-0.5-0.6-0.5h-0.7v1L34.9,58L34.9,58z M33.8,55.5C33.8,55.4,33.9,55.4,33.8,55.5l1-0.1c0.5,0,0.8,0.3,0.8,0.8
			c0,0.3-0.2,0.5-0.4,0.7c0.2,0.1,0.5,0.3,0.5,0.7c0,0.5-0.4,0.8-0.9,0.8h-0.9c0,0-0.1,0-0.1-0.1V55.5z"/>
		<path fill="var(--paragraph)" stroke="transparent" d="M36.5,55.5C36.5,55.4,36.5,55.4,36.5,55.5l0.2-0.1c0,0,0.1,0,0.1,0.1v1.7c0,0.5,0.3,0.8,0.8,0.8c0.5,0,0.8-0.4,0.8-0.8
			v-1.7c0,0,0-0.1,0.1-0.1h0.2c0,0,0.1,0,0.1,0.1v1.8c0,0.6-0.4,1.1-1.1,1.1c-0.6,0-1.1-0.5-1.1-1.1L36.5,55.5L36.5,55.5z"/>
		<path fill="var(--paragraph)" stroke="transparent" d="M39.4,57.9C39.4,57.9,39.4,57.8,39.4,57.9c0.1-0.1,0.1-0.2,0.2-0.1c0,0,0.3,0.3,0.7,0.3c0.3,0,0.6-0.2,0.6-0.5
			c0-0.3-0.2-0.5-0.7-0.7c-0.5-0.2-0.7-0.4-0.7-0.9c0-0.3,0.2-0.7,0.9-0.7c0.4,0,0.7,0.2,0.7,0.2c0,0,0.1,0.1,0,0.1c0,0,0,0,0,0.1
			c0,0.1-0.1,0.1-0.1,0c0,0-0.3-0.2-0.5-0.2c-0.4,0-0.6,0.3-0.6,0.5c0,0.3,0.2,0.4,0.6,0.6c0.6,0.2,0.9,0.4,0.9,0.9
			c0,0.4-0.4,0.7-0.9,0.7s-0.8-0.3-0.9-0.3C39.4,58,39.4,58,39.4,57.9"/>
		<path fill="var(--paragraph)" stroke="transparent" d="M41.9,55.5C41.9,55.4,41.9,55.4,41.9,55.5l0.2-0.1c0,0,0.1,0,0.1,0.1v2.8c0,0,0,0.1-0.1,0.1H42c0,0-0.1,0-0.1-0.1V55.5z"
			/>
		<path fill="var(--paragraph)" stroke="transparent" d="M43.2,55.4C43.2,55.4,43.2,55.4,43.2,55.4l0.2-0.1l1.9,2.3h0v-2.2c0,0,0-0.1,0.1-0.1h0.1c0,0,0.1,0,0.1,0.1v2.8
			c0,0,0,0.1-0.1,0.1h-0.1L43.5,56l0,0v2.3c0,0,0,0.1-0.1,0.1h-0.1c0,0-0.1,0-0.1-0.1L43.2,55.4L43.2,55.4z"/>
		<path fill="var(--paragraph)" stroke="transparent" d="M46.5,55.5C46.5,55.4,46.5,55.4,46.5,55.5l1.7-0.1c0,0,0.1,0,0.1,0.1v0.1c0,0,0,0.1-0.1,0.1h-1.4v1H48c0,0,0.1,0,0.1,0.1
			v0.1c0,0,0,0.1-0.1,0.1h-1.2V58h1.4c0,0,0.1,0,0.1,0.1v0.1c0,0,0,0.1-0.1,0.1h-1.6c0,0-0.1,0-0.1-0.1V55.5z"/>
		<path fill="var(--paragraph)" stroke="transparent" d="M48.8,57.9C48.9,57.9,48.9,57.8,48.8,57.9c0.1-0.1,0.1-0.2,0.2-0.1c0,0,0.3,0.3,0.7,0.3c0.3,0,0.6-0.2,0.6-0.5
			c0-0.3-0.2-0.5-0.7-0.7c-0.5-0.2-0.7-0.4-0.7-0.9c0-0.3,0.2-0.7,0.9-0.7c0.4,0,0.7,0.2,0.7,0.2c0,0,0.1,0.1,0,0.1c0,0,0,0,0,0.1
			c0,0.1-0.1,0.1-0.1,0c0,0-0.3-0.2-0.5-0.2c-0.4,0-0.6,0.3-0.6,0.5c0,0.3,0.2,0.4,0.6,0.6c0.6,0.2,0.9,0.4,0.9,0.9
			c0,0.4-0.4,0.7-0.9,0.7s-0.8-0.3-0.9-0.3C48.8,58,48.8,58,48.8,57.9"/>
		<path fill="var(--paragraph)" stroke="transparent" d="M51.1,57.9C51.2,57.9,51.2,57.8,51.1,57.9c0.1-0.1,0.1-0.2,0.2-0.1c0,0,0.3,0.3,0.7,0.3c0.3,0,0.6-0.2,0.6-0.5
			c0-0.3-0.2-0.5-0.7-0.7c-0.5-0.2-0.7-0.4-0.7-0.9c0-0.3,0.2-0.7,0.9-0.7c0.4,0,0.7,0.2,0.7,0.2c0,0,0.1,0.1,0,0.1c0,0,0,0,0,0.1
			c0,0.1-0.1,0.1-0.1,0c0,0-0.3-0.2-0.5-0.2c-0.4,0-0.6,0.3-0.6,0.5c0,0.3,0.2,0.4,0.6,0.6c0.6,0.2,0.9,0.4,0.9,0.9
			c0,0.4-0.4,0.7-0.9,0.7s-0.8-0.3-0.9-0.3C51.1,58,51.1,58,51.1,57.9"/>
		<path fill="var(--paragraph)" stroke="transparent" d="M54.6,55.5C54.6,55.4,54.7,55.4,54.6,55.5l1.7-0.1c0,0,0.1,0,0.1,0.1v0.1c0,0,0,0.1-0.1,0.1H55v1h1.2c0,0,0.1,0,0.1,0.1
			v0.1c0,0,0,0.1-0.1,0.1H55V58h1.4c0,0,0.1,0,0.1,0.1v0.1c0,0,0,0.1-0.1,0.1h-1.6c0,0-0.1,0-0.1-0.1L54.6,55.5L54.6,55.5z"/>
		<path fill="var(--paragraph)" stroke="transparent" d="M57.2,55.4C57.2,55.4,57.2,55.4,57.2,55.4l0.2-0.1l1.9,2.3h0v-2.2c0,0,0-0.1,0.1-0.1h0.1c0,0,0.1,0,0.1,0.1v2.8
			c0,0,0,0.1-0.1,0.1h-0.1L57.5,56l0,0v2.3c0,0,0,0.1-0.1,0.1h-0.1c0,0-0.1,0-0.1-0.1L57.2,55.4L57.2,55.4z"/>
		<path fill="var(--paragraph)" stroke="transparent" d="M60.9,55.7h-0.7c0,0-0.1,0-0.1-0.1v-0.1c0,0,0-0.1,0.1-0.1H62c0,0,0.1,0,0.1,0.1v0.1c0,0,0,0.1-0.1,0.1h-0.7v2.6
			c0,0,0,0.1-0.1,0.1H61c0,0-0.1,0-0.1-0.1L60.9,55.7L60.9,55.7z"/>
		<path fill="var(--paragraph)" stroke="transparent" d="M62.6,55.5C62.6,55.4,62.6,55.4,62.6,55.5l1.7-0.1c0,0,0.1,0,0.1,0.1v0.1c0,0,0,0.1-0.1,0.1h-1.4v1h1.2c0,0,0.1,0,0.1,0.1
			v0.1c0,0,0,0.1-0.1,0.1h-1.2V58h1.4c0,0,0.1,0,0.1,0.1v0.1c0,0,0,0.1-0.1,0.1h-1.6c0,0-0.1,0-0.1-0.1V55.5z"/>
		<path fill="var(--paragraph)" stroke="transparent" d="M66.3,56.9c0.3,0,0.6-0.3,0.6-0.6c0-0.3-0.3-0.6-0.6-0.6h-0.8v1.2H66.3z M65.1,55.5C65.1,55.4,65.2,55.4,65.1,55.5
			l1.1-0.1c0.5,0,0.9,0.4,0.9,0.9c0,0.4-0.2,0.7-0.6,0.8l0.6,1.1c0,0,0,0.1-0.1,0.1h-0.2c0,0-0.1,0-0.1,0l-0.5-1.1h-0.8v1.1
			c0,0,0,0.1-0.1,0.1h-0.2c0,0-0.1,0-0.1-0.1L65.1,55.5L65.1,55.5z"/>
		<path fill="var(--paragraph)" stroke="transparent" d="M69,56.9c0.3,0,0.6-0.3,0.6-0.6c0-0.3-0.3-0.6-0.6-0.6h-0.7v1.2H69z M68,55.5C68,55.4,68,55.4,68,55.5l1-0.1
			c0.5,0,0.9,0.4,0.9,0.9c0,0.5-0.4,0.9-0.9,0.9h-0.7v1c0,0,0,0.1-0.1,0.1h-0.2c0,0-0.1,0-0.1-0.1L68,55.5L68,55.5z"/>
		<path fill="var(--paragraph)" stroke="transparent" d="M71.7,56.9c0.3,0,0.6-0.3,0.6-0.6c0-0.3-0.3-0.6-0.6-0.6h-0.8v1.2H71.7z M70.6,55.5C70.6,55.4,70.6,55.4,70.6,55.5
			l1.1-0.1c0.5,0,0.9,0.4,0.9,0.9c0,0.4-0.2,0.7-0.6,0.8l0.6,1.1c0,0,0,0.1-0.1,0.1h-0.2c0,0-0.1,0-0.1,0l-0.5-1.1h-0.8v1.1
			c0,0,0,0.1-0.1,0.1h-0.2c0,0-0.1,0-0.1-0.1V55.5z"/>
		<path fill="var(--paragraph)" stroke="transparent" d="M73.4,55.5C73.4,55.4,73.4,55.4,73.4,55.5l0.2-0.1c0,0,0.1,0,0.1,0.1v2.8c0,0,0,0.1-0.1,0.1h-0.2c0,0-0.1,0-0.1-0.1V55.5z
			"/>
		<path fill="var(--paragraph)" stroke="transparent" d="M74.5,57.9C74.5,57.9,74.5,57.8,74.5,57.9c0.1-0.1,0.1-0.2,0.2-0.1c0,0,0.3,0.3,0.7,0.3c0.3,0,0.6-0.2,0.6-0.5
			c0-0.3-0.2-0.5-0.7-0.7c-0.5-0.2-0.7-0.4-0.7-0.9c0-0.3,0.2-0.7,0.9-0.7c0.4,0,0.7,0.2,0.7,0.2c0,0,0.1,0.1,0,0.1c0,0,0,0,0,0.1
			c0,0.1-0.1,0.1-0.1,0c0,0-0.3-0.2-0.5-0.2c-0.4,0-0.6,0.3-0.6,0.5c0,0.3,0.2,0.4,0.6,0.6c0.6,0.2,0.9,0.4,0.9,0.9
			c0,0.4-0.4,0.7-0.9,0.7c-0.5,0-0.8-0.3-0.9-0.3C74.4,58,74.4,58,74.5,57.9"/>
		<path fill="var(--paragraph)" stroke="transparent" d="M77,55.5C77,55.4,77,55.4,77,55.5l1.7-0.1c0,0,0.1,0,0.1,0.1v0.1c0,0,0,0.1-0.1,0.1h-1.4v1h1.2c0,0,0.1,0,0.1,0.1v0.1
			c0,0,0,0.1-0.1,0.1h-1.2V58h1.4c0,0,0.1,0,0.1,0.1v0.1c0,0,0,0.1-0.1,0.1H77c0,0-0.1,0-0.1-0.1V55.5z"/>
		<path fill="#F39800" stroke="transparent" d="M72.4,44.7c0.2,0.1,0.4,0.2,0.6,0.3c0,0,0,0,0,0c0.1-0.1,0.1-0.2,0.2-0.3c0.1-0.1,0.1-0.2,0.2-0.4
			c0,0,0-0.1,0-0.1l0-0.1c0,0,0-0.1,0-0.1c0-0.2,0-0.4,0-0.5c0-0.2-0.1-0.4-0.1-0.6c0,0,0-0.1,0-0.1c0-0.1-0.1-0.2-0.2-0.2
			c-0.1,0-0.2,0-0.2,0c-0.1,0-0.2,0.1-0.2,0.2c0,0.1-0.1,0.2,0,0.3c0,0,0,0.1,0,0.1c0,0,0,0.1,0,0.1c0,0,0,0.1,0,0.1s0,0,0,0.1
			c0,0.2,0,0.3,0,0.5c0,0.1,0,0.1,0,0.2c0,0,0,0.1-0.1,0.1c0,0.1-0.1,0.1-0.1,0.2c0,0-0.1,0.1-0.1,0.1c0,0,0,0,0,0c0,0,0.1,0,0.1,0
			L72.4,44.7z"/>
		<path fill="#F39800" stroke="transparent" d="M71.3,44.1c0.3,0,0.5-0.2,0.5-0.5s-0.2-0.5-0.5-0.5c-0.3,0-0.5,0.2-0.5,0.5C70.8,43.9,71,44.1,71.3,44.1"/>
		<path fill="#D70453" stroke="transparent" class="st1" d="M72.4,46.3c0,0,0.1,0.1,0.1,0.2c0,0,0,0.1,0,0.2c0,0,0,0,0,0c0,0,0.1,0,0.1-0.1l0.1-0.1
			c0.1-0.1,0.3-0.2,0.6-0.3c0,0,0,0,0,0c0-0.1-0.1-0.2-0.1-0.3c-0.1-0.1-0.1-0.2-0.2-0.3c0,0-0.1-0.1-0.1-0.1l-0.1,0
			c0,0-0.1,0-0.1-0.1c-0.1-0.1-0.3-0.2-0.5-0.3c-0.2-0.1-0.4-0.1-0.6-0.2c0,0-0.1,0-0.1,0c-0.1,0-0.2,0-0.3,0.1
			c-0.1,0.1-0.1,0.1-0.1,0.2c0,0.1,0,0.2,0,0.3c0.1,0.1,0.1,0.2,0.3,0.2c0,0,0.1,0,0.1,0c0,0,0.1,0,0.1,0c0,0,0.1,0,0.1,0
			c0,0,0,0,0.1,0c0.2,0.1,0.3,0.1,0.4,0.2c0,0,0.1,0.1,0.1,0.1C72.4,46.2,72.4,46.3,72.4,46.3"/>
		<path fill="#D70453" stroke="transparent" class="st1" d="M71.6,46.4c-0.1,0-0.2-0.1-0.3-0.1c-0.2,0-0.4,0.1-0.4,0.3c-0.1,0.1-0.1,0.3,0,0.4c0,0.1,0.1,0.2,0.2,0.3
			c0.1,0,0.2,0.1,0.3,0.1c0.2,0,0.4-0.1,0.5-0.3c0.1-0.1,0.1-0.3,0-0.4C71.8,46.6,71.7,46.5,71.6,46.4"/>
		<path fill="#601E86" stroke="transparent" class="st2" d="M72.9,48c0.1,0,0.2,0,0.3-0.1c0,0,0-0.1,0.1-0.1c0,0,0.1-0.1,0.1-0.1s0,0,0.1-0.1c0,0,0,0,0.1,0
			c0.1-0.1,0.3-0.2,0.4-0.2c0.1,0,0.1,0,0.2,0c0.1,0,0.2,0,0.3,0c0,0,0.1,0,0.2,0l0,0c0,0,0-0.1,0-0.1l0-0.1c0-0.2,0-0.4,0-0.6
			c0,0,0,0,0,0c-0.1,0-0.2,0-0.3,0c-0.1,0-0.3,0-0.4,0c0,0-0.1,0-0.1,0l-0.1,0c0,0-0.1,0-0.1,0c-0.2,0.1-0.3,0.2-0.5,0.3
			c-0.2,0.1-0.3,0.3-0.5,0.4c0,0,0,0-0.1,0.1c0,0.1-0.1,0.2,0,0.3c0,0.1,0.1,0.1,0.1,0.2C72.6,48,72.8,48,72.9,48L72.9,48L72.9,48z"
			/>
		<path fill="#601E86" stroke="transparent" class="st2" d="M74.2,48c-0.1,0-0.2,0-0.3,0.1c-0.2,0.1-0.3,0.5-0.2,0.7c0.1,0.2,0.3,0.3,0.4,0.3c0.1,0,0.2,0,0.3-0.1
			c0.2-0.1,0.3-0.5,0.2-0.7C74.5,48.1,74.3,48,74.2,48"/>
		<path fill="#E3007F" stroke="transparent" class="st3" d="M76,45.9c-0.2-0.1-0.4-0.2-0.6-0.3c0,0,0,0,0,0c-0.1,0.1-0.1,0.2-0.2,0.3c-0.1,0.1-0.1,0.2-0.2,0.4
			c0,0,0,0.1,0,0.1l0,0.1c0,0,0,0.1,0,0.1c0,0.2,0,0.4,0,0.5c0,0.2,0.1,0.4,0.1,0.6c0,0,0,0.1,0,0.1c0,0.1,0.1,0.2,0.2,0.2
			c0.1,0,0.2,0,0.2,0c0.1,0,0.2-0.1,0.2-0.2c0-0.1,0.1-0.2,0-0.3c0,0,0-0.1,0-0.1c0,0,0-0.1,0-0.1c0,0,0-0.1,0-0.1c0,0,0,0,0-0.1
			c0-0.2,0-0.3,0-0.5c0-0.1,0-0.1,0-0.2c0,0,0-0.1,0.1-0.1c0,0,0.1-0.1,0.1-0.2c0,0,0.1-0.1,0.1-0.1c0,0,0,0,0,0c0,0-0.1,0-0.1,0
			L76,45.9z"/>
		<path fill="#E3007F" stroke="transparent" class="st3" d="M77,46.4c-0.3,0-0.5,0.2-0.5,0.5c0,0.3,0.2,0.5,0.5,0.5c0.3,0,0.5-0.2,0.5-0.5S77.3,46.4,77,46.4"/>
		<path fill="#036EB8" stroke="transparent" class="st4" d="M76.8,45.7c0.1,0,0.2,0,0.3-0.1c0.1-0.1,0.1-0.1,0.1-0.2c0-0.1,0-0.2,0-0.3c-0.1-0.1-0.1-0.2-0.3-0.2
			c0,0-0.1,0-0.1,0c0,0-0.1,0-0.1,0c0,0-0.1,0-0.1,0c0,0,0,0-0.1,0c-0.2-0.1-0.3-0.1-0.4-0.2c0,0-0.1-0.1-0.1-0.1
			c0,0-0.1-0.1-0.1-0.1c0-0.1-0.1-0.1-0.1-0.2c0,0,0-0.1,0-0.2c0,0,0,0,0,0c0,0-0.1,0-0.1,0.1L75.6,44c-0.1,0.1-0.3,0.2-0.6,0.3
			c0,0,0,0,0,0c0,0.1,0.1,0.2,0.1,0.3c0.1,0.1,0.1,0.2,0.2,0.3c0,0,0.1,0.1,0.1,0.1l0.1,0c0,0,0.1,0,0.1,0.1
			c0.1,0.1,0.3,0.2,0.5,0.3C76.4,45.6,76.6,45.6,76.8,45.7C76.8,45.7,76.8,45.7,76.8,45.7L76.8,45.7z"/>
		<path fill="#036EB8" stroke="transparent" class="st4" d="M76.8,44.1c0.2,0.1,0.6,0,0.7-0.2c0.1-0.2,0.1-0.6-0.2-0.7c-0.1,0-0.2-0.1-0.3-0.1c-0.2,0-0.4,0.1-0.5,0.3
			c-0.1,0.1-0.1,0.3,0,0.4C76.6,43.9,76.7,44,76.8,44.1"/>
		<path fill="#DAE000" stroke="transparent" class="st5" d="M73.8,43.4c0,0.2,0,0.4,0,0.6c0,0,0,0,0,0c0.2,0,0.5,0,0.7,0c0,0,0.1,0,0.1,0l0.1,0c0,0,0.1,0,0.1,0
			c0.2-0.1,0.3-0.2,0.5-0.3c0.2-0.1,0.3-0.2,0.5-0.4c0,0,0,0,0.1-0.1c0-0.1,0.1-0.2,0-0.3c0-0.1-0.1-0.1-0.1-0.2
			c-0.1-0.1-0.2-0.1-0.3-0.1c-0.1,0-0.2,0-0.3,0.1c0,0,0,0.1-0.1,0.1c0,0-0.1,0.1-0.1,0.1c0,0,0,0-0.1,0.1c0,0,0,0-0.1,0
			c-0.1,0.1-0.3,0.2-0.4,0.2c-0.1,0-0.1,0-0.2,0c-0.1,0-0.2,0-0.3,0c0,0-0.1,0-0.2,0l0,0c0,0,0,0.1,0,0.1L73.8,43.4z"/>
		<path fill="#DAE000" stroke="transparent" class="st5" d="M74.5,42.4c0.2-0.1,0.3-0.5,0.2-0.7c-0.1-0.2-0.3-0.3-0.5-0.3c-0.1,0-0.2,0-0.3,0.1c-0.1,0.1-0.2,0.2-0.2,0.3
			c0,0.1,0,0.3,0,0.4C73.9,42.5,74.2,42.5,74.5,42.4"/>
	</g>
</svg>
