<svg width="132" height="26" viewBox="0 0 132 26" fill="none" xmlns="http://www.w3.org/2000/svg">
<g clip-path="url(#clip0_1_769)">
<path d="M49.3357 14.6693V23.3839H45.9839V2.0531H53.6327C55.7055 2.0531 57.3197 2.6323 58.4781 3.82015C59.666 5.0094 60.2452 6.50158 60.2452 8.36119C60.2452 10.2208 59.666 11.713 58.4781 12.9022C57.3197 14.0915 55.7055 14.6707 53.6327 14.6707H49.3357V14.6693ZM53.7842 11.4998C55.7041 11.4998 56.8317 10.3414 56.8317 8.36119C56.8317 6.38097 55.7041 5.22257 53.7842 5.22257H49.3357V11.4998H53.7842Z" fill="#262628"/>
<path d="M68.1324 13.9372H70.7844V13.2668C70.7844 11.4381 69.5348 10.5854 67.7972 10.5854C66.3948 10.5854 65.4509 11.2558 64.9335 12.6273L62.0389 12.0173C62.6784 9.42702 64.904 7.78198 67.8295 7.78198C71.9119 7.78198 73.9538 9.79305 73.9538 13.846V23.3839H71.2724L70.9681 21.3728C69.9008 22.8664 68.3161 23.6279 66.2139 23.6279C63.5016 23.6279 61.4905 22.0123 61.4905 18.9663C61.4905 15.9202 64.1411 13.9372 68.1338 13.9372H68.1324ZM66.7608 20.8245C67.828 20.8245 68.7719 20.4893 69.5642 19.819C70.3875 19.1177 70.7844 18.1739 70.7844 16.9244V16.5892H68.0104C66.0596 16.5892 64.8409 17.5036 64.8409 18.9663C64.8409 20.063 65.5113 20.8245 66.7608 20.8245Z" fill="#262628"/>
<path d="M81.3277 23.384H78.1583V8.02466H81.3277V10.5841C82.3333 8.78618 84.162 7.78064 85.8688 7.78064C86.57 7.78064 87.2095 7.90265 87.8195 8.14667L87.2712 11.0413C86.7831 10.7369 86.1745 10.5841 85.4733 10.5841C84.3457 10.5841 83.3711 11.1941 82.5478 12.4437C81.726 13.6624 81.3291 15.4 81.3291 17.6845V23.3826L81.3277 23.384Z" fill="#262628"/>
<path d="M103.022 16.5892H92.1418C92.1418 18.9957 93.5442 20.8245 95.9522 20.8245C97.6575 20.8245 99.2128 19.8498 99.9743 18.2342L102.687 19.3015C101.133 22.3181 99.3348 23.6279 95.9522 23.6279C90.8936 23.6279 88.7914 19.3618 88.7914 15.7057C88.7914 12.0495 90.8936 7.78198 95.9522 7.78198C101.011 7.78198 103.022 11.7747 103.022 15.2176V16.5892ZM92.2035 13.9372H99.67C99.3965 12.0173 98.1161 10.5854 95.9522 10.5854C93.9102 10.5854 92.5695 11.957 92.2035 13.9372Z" fill="#262628"/>
<path d="M104.971 10.8294V8.02601H107.531V3.7893L110.7 1.80908V8.02461H114.693V10.828H110.7V18.324C110.7 19.9999 111.37 20.8231 112.742 20.8231C113.259 20.8231 113.747 20.6702 114.205 20.3968L115.028 23.0782C114.266 23.4442 113.443 23.6265 112.56 23.6265C109.512 23.6265 107.532 21.7683 107.532 18.1417V10.828H104.973L104.971 10.8294Z" fill="#262628"/>
<path d="M116.885 15.7057C116.885 13.48 117.555 11.591 118.925 10.0679C120.297 8.5449 122.155 7.78198 124.441 7.78198C126.727 7.78198 128.556 8.5435 129.927 10.0679C131.297 11.591 131.999 13.48 131.999 15.7057C131.999 17.9313 131.297 19.819 129.927 21.3434C128.556 22.8678 126.727 23.6293 124.441 23.6293C122.155 23.6293 120.297 22.8678 118.925 21.3434C117.555 19.8204 116.885 17.9313 116.885 15.7057ZM120.236 15.7057C120.236 17.1067 120.603 18.3268 121.333 19.3309C122.095 20.3364 123.131 20.8245 124.441 20.8245C125.751 20.8245 126.787 20.3364 127.519 19.3309C128.281 18.3254 128.647 17.1067 128.647 15.7057C128.647 14.3046 128.282 13.1154 127.519 12.1099C126.787 11.1043 125.751 10.5854 124.441 10.5854C123.131 10.5854 122.095 11.1043 121.333 12.1099C120.601 13.1154 120.236 14.3032 120.236 15.7057Z" fill="#262628"/>
<path d="M25.4357 25.4357H12.7185V12.7185C19.7433 12.7185 25.4371 18.4123 25.4371 25.4371L25.4357 25.4357Z" fill="#262628"/>
<path d="M12.7185 25.4357H0V12.7185C7.02472 12.7185 12.7185 18.4123 12.7185 25.4371V25.4357Z" fill="#262628"/>
<path d="M12.7185 12.7185H0V0C7.02472 0 12.7185 5.69383 12.7185 12.7185Z" fill="#262628"/>
<path d="M12.7185 12.7185H25.4371V0C18.4124 0 12.7185 5.69383 12.7185 12.7185Z" fill="#262628"/>
</g>
<defs>
<clipPath id="clip0_1_769">
<rect width="132" height="25.4357" fill="white"/>
</clipPath>
</defs>
</svg>
